<?xml version="1.0" standalone="no"?><!DOCTYPE svg PUBLIC "-//W3C//DTD SVG 1.1//EN" "http://www.w3.org/Graphics/SVG/1.1/DTD/svg11.dtd"><svg t="1503855301940" class="icon" style="" viewBox="0 0 1024 1024" version="1.1" xmlns="http://www.w3.org/2000/svg" p-id="4025" xmlns:xlink="http://www.w3.org/1999/xlink" width="200" height="200"><defs><style type="text/css"></style></defs><path d="M512.089523 64.468813C264.816085 64.468813 64.357943 264.935152 64.357943 512.200395 64.357943 759.465637 264.851941 959.933 512.089523 959.933 759.39472 959.933 959.821106 759.466661 959.821106 512.201419 959.821106 264.936176 759.392672 64.468813 512.089523 64.468813L512.089523 64.468813ZM832.571152 446.27092 690.038462 576.627003C682.639888 583.551258 681.103213 586.875597 682.639888 596.503374L685.737822 613.10253C616.82515 612.238918 540.146125 609.172741 477.963061 600.572488 472.891011 599.833859 477.590162 597.137507 477.590162 597.137507L679.752989 460.081523C679.752989 460.081523 687.750867 455.22256 679.19159 453.958389 668.127536 452.196334 644.972926 449.105571 645.022101 449.057421 604.115829 444.162602 559.207035 441.470347 512.075182 441.470347 432.184509 441.470347 358.64952 449.238749 300.24565 462.273845 302.236155 462.273845 304.217442 462.22877 306.205898 462.22877 392.627438 462.22877 484.565638 465.440419 567.560394 478.134373 572.792259 478.819731 567.497902 482.039574 567.497902 482.039574L365.608605 622.346138C365.608605 622.346138 357.122064 627.271691 364.932469 628.487714 385.82919 631.296755 407.866125 633.518786 430.811746 635.079022L430.927509 635.002189C457.024338 636.813414 484.249083 637.77947 512.290318 637.77947 588.239936 637.77947 670.178483 629.510114 729.763544 615.558136L733.825486 614.784677C723.838128 622.68523 707.131403 629.677099 689.887869 635.382259L718.690269 789.933792C721.817912 806.546266 712.130717 813.221579 697.175803 804.766797L528.808544 709.685584C517.272218 702.699862 506.420222 702.912949 494.646224 710.141464L327.09545 804.766797C312.147707 813.221579 302.505587 806.564706 305.682406 789.940963L343.318634 596.242138C345.283528 587.544562 345.167765 584.841038 338.24556 578.519162L191.45935 446.522934C178.961066 434.856502 182.803776 423.939968 199.986869 422.257821L387.062627 401.718632C401.613909 400.367382 404.386069 398.116667 410.381149 388.17541L498.416197 208.922347C505.964341 193.728736 518.31613 193.728736 525.865298 208.922347L608.458469 388.174384C613.073614 399.924821 616.386685 402.181683 631.163346 403.529859L824.287453 422.257822C841.479766 423.938944 845.210811 434.755082 832.571152 446.27092L832.571152 446.27092Z" fill="#de7f7f" p-id="4026"></path></svg>