<?xml version="1.0" standalone="no"?><!DOCTYPE svg PUBLIC "-//W3C//DTD SVG 1.1//EN" "http://www.w3.org/Graphics/SVG/1.1/DTD/svg11.dtd"><svg t="1503855222005" class="icon" style="" viewBox="0 0 1024 1024" version="1.1" xmlns="http://www.w3.org/2000/svg" p-id="3257" xmlns:xlink="http://www.w3.org/1999/xlink" width="200" height="200"><defs><style type="text/css"></style></defs><path d="M512.000512 961.609021c-248.320599 0-449.611068-201.292516-449.611068-449.610044 0-248.27148 201.290469-449.609021 449.611068-449.609021 248.318552 0 449.609021 201.337541 449.609021 449.609021C961.609533 760.316505 760.319064 961.609021 512.000512 961.609021zM512.927627 390.912178c-33.029254 18.782785-33.029254 5.464455-31.956829-18.049075 2.975774-128.308271-219.926922-36.83493-283.054681 129.965004-35.614126 101.277638 21.417799 188.801017 109.621677 226.948849 215.291344 82.057901 372.08846-53.662177 398.823358-141.477198 35.612079-131.819235-67.12991-106.547665-67.12991-106.547665s-30.587646 7.121188-16.146749-17.222243C645.867382 417.061744 608.839047 339.102185 512.927627 390.912178zM687.821913 443.114097c10.19827 2.732228 14.246469-6.244214 15.318894-14.439874 1.12359-8.195659 18.831904-119.280664-94.888114-106.451474-8.587586 0.976234-14.391778 6.488785-13.416568 14.539134 0.976234 8.097422 7.319709 12.586666 12.19781 12.001335 4.879124-0.633427 80.787978-14.830777 74.543763 70.544683C682.700265 427.112658 677.577594 440.382892 687.821913 443.114097zM601.276814 230.212172c-8.292873 1.610684-26.782993 9.172917-26.928303 25.515117-0.099261 16.344247 16.194844 26.978445 24.489764 27.759227 30.492478 0 176.507016-8.391111 149.773142 141.870148-3.709485 16.489556-6.488785 41.662889 11.803837 47.03013 16.686031 4.487198 26.930349-14.049994 31.517831-28.199249C794.176173 427.696965 861.695962 212.356502 601.276814 230.212172zM432.770006 699.43388c-101.960183 14.929014-192.264908-32.881898-201.825658-106.743116-9.513678-73.861218 65.420989-145.870252 167.333076-160.848385 101.915158-14.976086 192.264908 32.833803 201.730491 106.696044C609.570711 612.399641 534.685163 684.408675 432.770006 699.43388zM510.437923 545.417087c-8.099469-45.029566-57.713446-72.691579-110.890576-61.810764-53.126988 10.880815-89.667206 56.201-81.569784 101.181447 8.098445 44.981471 57.71447 72.691579 110.88853 61.810764C481.996151 635.718743 518.536368 590.44563 510.437923 545.417087zM447.650925 564.346205c-6.831592 0-13.806447-8.782014-13.806447-19.611663 0-10.830673 6.974855-19.562545 13.806447-19.562545 6.879688 0 13.805424 8.731872 13.805424 19.562545C461.456349 555.564191 454.530612 564.346205 447.650925 564.346205zM393.255037 605.081978c-18.393929 0-33.271778-13.513782-33.271778-30.148647 0-16.685008 14.877849-30.198789 33.271778-30.198789 18.343787 0 33.222659 13.513782 33.222659 30.198789C426.477696 591.568197 411.598824 605.081978 393.255037 605.081978z" p-id="3258" fill="#c9b27c"></path></svg>