<?xml version="1.0" standalone="no"?><!DOCTYPE svg PUBLIC "-//W3C//DTD SVG 1.1//EN" "http://www.w3.org/Graphics/SVG/1.1/DTD/svg11.dtd"><svg t="1503854821703" class="icon" style="" viewBox="0 0 1024 1024" version="1.1" xmlns="http://www.w3.org/2000/svg" p-id="1445" xmlns:xlink="http://www.w3.org/1999/xlink" width="200" height="200"><defs><style type="text/css"></style></defs><path d="M595.161536 513.613754c-14.525831 0-29.131481 14.606673-29.131481 29.104875 0 14.718213 14.604626 29.15911 29.131481 29.15911 22.022573 0 36.434817-14.440897 36.434817-29.15911C631.5984 528.21838 617.185132 513.613754 595.161536 513.613754z" fill="#c9b27c" p-id="1446"></path><path d="M755.352959 513.613754c-14.418384 0-28.940123 14.606673-28.940123 29.104875 0 14.718213 14.523785 29.15911 28.940123 29.15911 21.830191 0 36.437887-14.440897 36.437887-29.15911C791.792892 528.21838 777.18315 513.613754 755.352959 513.613754z" fill="#c9b27c" p-id="1447"></path><path d="M296.611953 302.378795c-21.802562 0-43.849694 14.389732-43.849694 36.32737 0 21.830191 22.047132 36.436864 43.849694 36.436864 21.829168 0 36.326347-14.606673 36.326347-36.436864C332.939323 316.768527 318.441121 302.378795 296.611953 302.378795z" fill="#c9b27c" p-id="1448"></path><path d="M500.460688 375.142006c21.911032 0 36.434817-14.606673 36.434817-36.436864 0-21.937638-14.524808-36.32737-36.434817-36.32737-21.828145 0-43.767829 14.389732-43.767829 36.32737C456.693882 360.535333 478.633566 375.142006 500.460688 375.142006z" fill="#c9b27c" p-id="1449"></path><path d="M511.456113 3.184529C229.702054 3.184529 1.044284 231.749178 1.044284 513.612731c0 281.862529 228.65777 510.387269 510.411829 510.387269 281.784758 0 510.334058-228.523717 510.334058-510.387269C1021.79017 231.749178 793.240871 3.184529 511.456113 3.184529zM391.232984 673.965835c-36.353976 0-65.572438-7.385201-102.006232-14.606673l-101.814874 51.101865 29.102828-87.645153C143.644049 571.878762 99.985714 506.173295 99.985714 426.188612c0-138.581242 131.138736-247.670799 291.24727-247.670799 143.174863 0 268.624017 87.151919 293.843398 204.503651-9.242502-1.039679-18.599613-1.696642-28.03552-1.696642-138.364301 0-247.589958 103.238292-247.589958 230.494605 0 21.11797 3.28379 41.523719 8.974395 61.000306C409.424298 673.528883 400.369062 673.965835 391.232984 673.965835zM820.813856 776.00072l21.937638 72.820516-79.876212-43.768853c-29.132504 7.27366-58.402131 14.605649-87.399559 14.605649-138.580219 0-247.700475-94.703919-247.700475-211.343429 0-116.477828 109.120256-211.344452 247.700475-211.344452 130.808208 0 247.368924 94.866624 247.368924 211.344452C922.848741 673.965835 879.298875 732.177632 820.813856 776.00072z" fill="#c9b27c" p-id="1450"></path></svg>